HIERARCHY
ROOT Hips
{
	OFFSET -3.958830 18.904000 13.208200
	CHANNELS 6 Xposition Yposition Zposition Zrotation Yrotation Xrotation 
	JOINT LHipJoint
	{
		OFFSET 0.000000 0.000000 0.000000
		CHANNELS 3 Zrotation Yrotation Xrotation
		JOINT LeftUpLeg
		{
			OFFSET 1.800000 -1.400000 0.085000
			CHANNELS 3 Zrotation Yrotation Xrotation
			JOINT LeftLeg
			{
				OFFSET 2.215000 -6.000000 0.000000
				CHANNELS 3 Zrotation Yrotation Xrotation
				JOINT LeftFoot
				{
					OFFSET 2.500000 -6.900000 0.000000
					CHANNELS 3 Zrotation Yrotation Xrotation
					JOINT LeftToeBase
					{
						OFFSET 0.200000 -0.500000 1.950000
						CHANNELS 3 Zrotation Yrotation Xrotation
						End Site
						{
							OFFSET 0.000000 0.000000 0.000000
						}
					}
				}
			}
		}
	}
	JOINT RHipJoint
	{
		OFFSET 0.000000 0.000000 0.000000
		CHANNELS 3 Zrotation Yrotation Xrotation
		JOINT RightUpLeg
		{
			OFFSET -1.800000 -1.400000 0.085000
			CHANNELS 3 Zrotation Yrotation Xrotation
			JOINT RightLeg
			{
				OFFSET -2.215000 -6.000000 0.000000
				CHANNELS 3 Zrotation Yrotation Xrotation
				JOINT RightFoot
				{
					OFFSET -2.500000 -6.900000 0.000000
					CHANNELS 3 Zrotation Yrotation Xrotation
					JOINT RightToeBase
					{
						OFFSET -0.200000 -0.500000 1.950000
						CHANNELS 3 Zrotation Yrotation Xrotation
						End Site
						{
							OFFSET 0.000000 0.000000 0.000000
						}
					}
				}
			}
		}
	}
	JOINT LowerBack
	{
		OFFSET 0.000000 0.000000 0.000000
		CHANNELS 3 Zrotation Yrotation Xrotation
		JOINT Spine
		{
			OFFSET -0.087000 1.940000 -0.288900
			CHANNELS 3 Zrotation Yrotation Xrotation
			JOINT Spine1
			{
				OFFSET 0.000000 1.950000 0.060000
				CHANNELS 3 Zrotation Yrotation Xrotation
				JOINT Neck
				{
					OFFSET 0.000000 0.000000 0.000000
					CHANNELS 3 Zrotation Yrotation Xrotation
					JOINT Neck1
					{
						OFFSET 0.000000 1.600000 0.340000
						CHANNELS 3 Zrotation Yrotation Xrotation
						JOINT Head
						{
							OFFSET 0.000000 1.667000 -0.240000
							CHANNELS 3 Zrotation Yrotation Xrotation
							End Site
							{
								OFFSET 0.000000 0.000000 0.000000
							}
						}
					}
				}
				JOINT LeftShoulder
				{
					OFFSET 0.000000 0.000000 0.000000
					CHANNELS 3 Zrotation Yrotation Xrotation
					JOINT LeftArm
					{
						OFFSET 2.700000 1.550000 -0.730000
						CHANNELS 3 Zrotation Yrotation Xrotation
						JOINT LeftForeArm
						{
							OFFSET 5.450000 0.000000 0.000000
							CHANNELS 3 Zrotation Yrotation Xrotation
							JOINT LeftHand
							{
								OFFSET 3.450000 0.000000 0.000000
								CHANNELS 3 Zrotation Yrotation Xrotation
								JOINT LeftHandIndex1
								{
									OFFSET 0.750000 0.000000 0.000000
									CHANNELS 3 Zrotation Yrotation Xrotation
									End Site
									{
										OFFSET 0.000000 0.000000 0.000000
									}
								}
							}
						}
					}
				}
				JOINT RightShoulder
				{
					OFFSET 0.000000 0.000000 0.000000
					CHANNELS 3 Zrotation Yrotation Xrotation
					JOINT RightArm
					{
						OFFSET -2.700000 1.550000 -0.730000
						CHANNELS 3 Zrotation Yrotation Xrotation
						JOINT RightForeArm
						{
							OFFSET -5.450000 0.000000 0.000000
							CHANNELS 3 Zrotation Yrotation Xrotation
							JOINT RightHand
							{
								OFFSET -3.450000 0.000000 0.000000
								CHANNELS 3 Zrotation Yrotation Xrotation
								JOINT RightHandIndex1
								{
									OFFSET -0.750000 0.000000 0.000000
									CHANNELS 3 Zrotation Yrotation Xrotation
									End Site
									{
										OFFSET 0.000000 0.000000 0.000000
									}
								}
							}
						}
					}
				}
			}
		}
	}
}
MOTION
Frames: 9
Frame Time: 0.016667
-1.062820 15.760670 -2.177710 -16.790177 -37.732021 17.232028 -15.530135 11.478907 4.690655 8.279247 -6.198089 -42.010114 -14.643862 7.956876 19.471029 -1.480886 5.358566 2.728354 1.466160 0.950400 0.978760 18.274217 -10.105066 2.239867 2.857340 2.778251 -13.173145 6.766170 -7.586615 31.528496 -0.596374 -5.466210 2.867279 1.082910 0.342740 0.049150 -3.236049 -1.274727 -7.066998 -0.338925 6.918750 7.307674 0.343824 8.043158 8.446602 -0.022419 -3.554462 -2.957133 -5.403804 5.845813 18.650283 -0.775690 3.119440 -14.379180 -25.209917 5.406342 -3.229133 -29.813307 -1.231917 0.706094 -152.170939 -58.723187 121.758331 -3.806266 3.573040 0.635490 0.398230 -0.388290 0.509940 24.492664 -1.784453 2.437656 25.115753 -12.633011 -4.750810 74.387975 34.325877 16.909267 1.012421 -2.460202 -0.530190 0.632760 -0.356900 -0.643250 
-1.155270 15.630820 -2.130300 -18.286410 -39.719556 15.039536 -15.498042 11.603415 4.664614 9.623652 -5.464512 -40.677411 -15.389084 8.457921 19.960364 -1.380191 5.542676 2.647199 1.426350 0.884110 1.024350 18.252088 -10.129162 2.380435 2.254348 3.804527 -12.655180 7.169998 -9.310637 38.990492 -0.931578 -6.510440 2.526150 0.975400 0.241260 -0.012410 -3.200160 -1.335598 -7.396540 0.457006 7.029676 12.083114 -1.164478 8.852997 8.401857 0.501365 -3.884046 -3.826573 -6.112214 5.531626 20.218752 0.890750 3.514670 -18.343830 -26.508867 3.429176 -3.347552 -25.949425 -1.008434 -0.381568 -157.270533 -56.099241 126.721135 -3.642771 3.460981 0.801280 0.239370 -0.267600 0.477030 24.455365 0.287740 4.183711 22.065631 -16.279382 -6.035925 83.392748 37.814369 21.900815 1.114145 -2.349832 -0.545710 0.675410 -0.372930 -0.667800 
-1.219700 15.500960 -2.090070 -19.569111 -41.376201 12.906863 -15.430858 11.639736 4.603550 10.618622 -4.971063 -39.617142 -15.458932 9.373952 22.472898 -1.240623 5.923538 2.494512 1.375420 0.807120 1.018280 18.273259 -10.031991 2.695449 0.669835 6.103711 -14.621157 8.963735 -12.410563 48.596208 -1.377248 -8.155086 2.013984 0.868140 0.164420 -0.068340 -3.337843 -1.327741 -7.819388 2.008337 6.555761 17.684708 -3.353417 9.161181 7.363749 0.723318 -4.735221 -4.860418 -7.741939 5.700019 21.630304 3.102850 3.727920 -21.023260 -27.149111 1.761047 -3.296294 -23.133347 -0.804132 -1.517825 -159.926697 -54.024439 128.379316 -3.496718 3.409951 0.918880 0.107390 -0.197030 0.455710 24.334411 2.450748 5.669432 20.345160 -18.835947 -7.146029 89.975014 40.646589 26.465312 1.224418 -2.264446 -0.550790 0.681190 -0.377710 -0.677200 
-1.296240 15.378750 -2.058760 -19.464729 -42.377853 10.369559 -15.462346 11.642894 4.498816 11.126599 -4.852337 -38.428553 -15.946951 10.874069 26.131324 -1.083083 6.636669 2.192878 1.264350 0.653100 0.960830 18.238147 -9.677877 3.082924 -2.079900 8.719834 -18.286335 11.876505 -16.644228 57.148037 -1.817146 -9.999221 1.446673 0.741060 0.114290 -0.062570 -3.284994 -1.625202 -8.175811 1.180166 6.456877 22.193828 -4.316938 9.189911 5.903705 0.951818 -4.846819 -5.737595 -8.277135 6.133061 23.228446 3.668360 4.594490 -21.166290 -27.219736 0.314244 -3.253681 -20.504991 -0.805660 -2.536173 -159.117793 -53.436547 125.713195 -3.466639 3.436661 0.974440 0.061510 -0.193550 0.387770 24.007016 4.077262 6.862282 20.917662 -20.574385 -8.329516 93.051907 43.496050 30.099457 1.296987 -2.204600 -0.549630 0.601030 -0.308120 -0.709690 
-1.391960 15.241600 -2.025780 -19.552051 -43.083726 8.795721 -15.547018 11.470441 4.401552 11.353733 -4.892857 -38.853181 -15.318736 12.175572 30.085810 -0.926985 7.287411 1.951708 1.209390 0.607120 0.896180 18.214001 -9.120065 3.572176 -5.010681 11.334229 -23.024708 14.486908 -22.406328 67.191647 -2.427888 -12.300913 0.825883 0.687160 0.130790 -0.064630 -3.246554 -1.991391 -8.504748 0.149862 6.478784 24.983494 -4.132190 8.913387 4.798533 0.633459 -5.464547 -6.204454 -9.684234 7.169434 24.159493 5.156270 5.063820 -20.985660 -26.180698 0.173563 -3.247374 -19.553600 -1.065127 -3.118724 -159.877501 -53.266158 126.568120 -3.457286 3.425528 0.984640 0.043360 -0.186760 0.382050 23.739982 4.869369 7.358844 21.019436 -21.053137 -8.756035 95.165254 44.972173 32.609422 1.341429 -2.159072 -0.539920 0.601270 -0.275090 -0.684640 
-1.468180 15.143160 -2.029430 -18.664563 -42.935123 6.263686 -15.665385 11.409049 4.371286 11.259166 -5.334251 -39.524633 -13.945724 13.563621 35.371936 -0.655478 8.055056 1.678152 1.169140 0.584360 0.842540 18.152225 -8.514284 3.992892 -8.341222 12.769170 -27.943054 16.235622 -27.598494 74.465107 -2.926608 -14.024609 0.410928 0.606870 0.104990 -0.057170 -3.077182 -2.683607 -8.812740 -2.544287 6.427839 29.159624 -2.912774 7.950514 3.191691 0.106140 -6.578009 -7.087702 -12.211408 8.552231 24.953020 7.159950 5.393650 -21.888870 -23.891897 0.045067 -2.740011 -20.567928 -1.483993 -4.183027 -159.290737 -55.109902 126.800366 -3.407440 3.389529 0.995040 -0.019610 -0.135450 0.384680 22.963984 6.243947 8.007370 22.267111 -20.526493 -9.422504 96.223336 47.412704 35.706829 1.448764 -2.088438 -0.479580 0.571200 -0.274890 -0.634950 
-1.511850 15.099960 -2.067020 -17.649660 -42.021893 2.238455 -15.716318 11.392369 4.356140 11.751510 -5.804002 -38.853978 -13.590312 15.184495 40.240240 -0.457985 8.969105 1.312387 1.146810 0.564010 0.822500 18.125777 -8.098811 4.291400 -11.275720 13.236823 -31.401138 16.998961 -31.418588 79.426089 -3.272213 -15.142692 0.139838 0.556110 0.028040 -0.057950 -3.033580 -3.161064 -9.060080 -5.288421 6.583984 36.147998 -1.978228 6.786889 0.530262 -0.447831 -7.195321 -7.532561 -13.949913 9.713115 26.067868 9.184800 5.826440 -25.539300 -22.916638 -1.096853 -2.905465 -18.970454 -2.757935 -5.611321 -154.852463 -58.365939 122.539766 -3.331067 3.299915 1.086980 -0.116540 -0.067590 0.339550 23.530889 7.807344 8.700068 23.435094 -19.834641 -10.089742 97.273854 50.368096 39.447051 1.524744 -1.960763 -0.457320 0.553210 -0.237640 -0.642090 
-1.562530 15.065540 -2.082900 -17.475206 -41.251797 -0.438644 -15.779972 11.333200 4.390751 13.356420 -5.992513 -38.170925 -14.352030 16.990658 43.545647 -0.241643 9.849259 0.992405 1.115470 0.531840 0.820770 18.102210 -7.724807 4.490185 -13.646794 13.262324 -34.660788 17.159414 -33.617572 82.345497 -3.455516 -15.779380 -0.019444 0.505890 -0.016620 -0.034080 -2.961352 -3.567884 -9.260970 -7.394137 7.026733 41.263683 -0.345637 5.922992 -1.544292 -0.890550 -7.389977 -7.710016 -14.831928 10.245641 26.904779 9.136350 5.999910 -27.461650 -22.640908 -2.250178 -3.152872 -17.316804 -3.831856 -6.526879 -143.339748 -62.095978 109.642797 -3.337933 3.192929 1.119050 -0.156700 -0.021140 0.299160 24.573156 8.852767 9.311929 24.760808 -20.218452 -10.862218 97.381504 54.111249 43.017597 1.600632 -1.850955 -0.426740 0.527040 -0.211150 -0.640410 
-1.592540 15.037400 -2.085740 -18.183383 -39.925334 -1.271120 -15.858068 11.252797 4.539741 15.288652 -6.540682 -38.356869 -15.412569 18.271664 45.400951 -0.094480 10.457529 0.780099 1.056590 0.462180 0.791170 18.073950 -7.381671 4.588737 -15.697476 12.354794 -37.870317 17.561110 -34.490220 82.274627 -3.452213 -15.903390 -0.058549 0.445960 -0.038650 -0.022150 -2.826163 -4.062619 -9.453125 -8.382198 6.668146 44.058365 1.672781 4.944361 -2.376765 -1.137393 -7.675111 -8.340522 -16.129930 10.500891 28.027371 7.977350 5.673450 -27.486210 -22.001300 -3.997304 -2.726453 -18.653793 -6.101098 -6.323533 -125.931401 -64.187212 89.393012 -3.431982 3.082581 1.125080 -0.162860 -0.020110 0.261440 24.893369 10.336246 10.009801 27.087809 -20.159609 -11.885511 95.493128 57.885338 44.811960 1.664373 -1.735526 -0.415020 0.489410 -0.175630 -0.644970 
